<?xml version="1.0" encoding="utf-8"?>
<!-- Generator: Adobe Illustrator 16.0.0, SVG Export Plug-In . SVG Version: 6.00 Build 0)  -->
<!DOCTYPE svg PUBLIC "-//W3C//DTD SVG 1.1//EN" "http://www.w3.org/Graphics/SVG/1.1/DTD/svg11.dtd">
<svg version="1.1" id="pr_x5F_cc_x5F_app_x5F_RGB.svg"
	 xmlns="http://www.w3.org/2000/svg" xmlns:xlink="http://www.w3.org/1999/xlink" x="0px" y="0px" width="512px" height="512px"
	 viewBox="0.75 -6.4 512 512" enable-background="new 0.75 -6.4 512 512" xml:space="preserve">
<g>
	<rect x="54.044" y="52.207" fill="#0A2431" width="407.911" height="396.788"/>
</g>
<g>
	<path fill="#ADD5EC" d="M35.503,33.665v433.869h444.995V33.665H35.503z M54.044,52.207h407.913v396.786H54.044V52.207z"/>
</g>
<path fill="#ADD5EC" d="M158.775,336.355c-2.142,0-2.754-0.92-2.754-2.754v-199.22c0-1.529,0.612-2.447,2.142-2.447h29.396
	c1.53,0,1.836,0.612,1.836,2.142v171.686h76.483c1.529,0,1.969,0.612,1.659,2.141l-4.589,26.308
	c-0.302,1.532-1.224,2.144-2.75,2.144H158.775V336.355z M296.01,216.275c0-2.141,0-7.648-0.918-18.05
	c0-1.53,0.335-1.836,1.558-2.447c11.319-4.589,38.158-12.849,68.14-12.849c1.529,0,2.142,0.306,2.142,1.835v26.922
	c0,1.53-0.612,1.836-2.142,1.836c-11.626-0.612-28.98,0.918-35.405,3.671v117.019c0,1.532-0.612,2.144-2.142,2.144h-29.089
	c-1.53,0-2.142-0.611-2.142-2.144V216.275H296.01z"/>
</svg>
