<?xml version="1.0" encoding="utf-8"?>
<!-- Generator: Adobe Illustrator 16.0.0, SVG Export Plug-In . SVG Version: 6.00 Build 0)  -->
<!DOCTYPE svg PUBLIC "-//W3C//DTD SVG 1.1//EN" "http://www.w3.org/Graphics/SVG/1.1/DTD/svg11.dtd">
<svg version="1.1" id="ps_x5F_cc_x5F_app_x5F_RGB.svg"
	 xmlns="http://www.w3.org/2000/svg" xmlns:xlink="http://www.w3.org/1999/xlink" x="0px" y="0px" width="512px" height="499.199px"
	 viewBox="0 0 512 499.199" enable-background="new 0 0 512 499.199" xml:space="preserve">
<g>
	<rect x="52.042" y="51.205" fill="#001D26" width="407.916" height="396.79"/>
</g>
<g>
	<path fill="#00C8FF" d="M33.5,32.663v433.873h445V32.663H33.5z M52.042,51.205h407.917v396.79H52.042V51.205z"/>
</g>
<path fill="#00C8FF" d="M141.042,134.251c0-1.224,2.624-2.14,4.153-2.14c11.932-0.612,29.447-0.917,47.804-0.917
	c51.397,0,71.413,28.147,71.413,64.244c0,47.114-34.168,67.307-76.081,67.307c-7.037,0-9.484-0.307-14.379-0.307v71.236
	c0,1.531-0.612,2.145-2.142,2.145h-28.626c-1.529,0-2.141-0.613-2.141-2.145V134.251z M173.953,232.764
	c4.283,0.305,7.648,0.305,14.991,0.305c21.722,0,42.123-7.649,42.123-37.019c0-23.557-14.589-35.489-39.37-35.489
	c-7.342,0-14.379,0.306-17.744,0.612V232.764z M333.544,210.735c-14.686,0-19.58,7.345-19.58,13.461
	c0,6.732,3.364,11.32,22.945,21.417c29.063,14.073,38.242,27.534,38.242,47.42c0,29.677-22.64,45.586-53.232,45.586
	c-16.215,0-30.016-3.368-37.97-7.956c-1.224-0.611-1.529-1.528-1.529-3.06v-27.227c0-1.835,0.917-2.448,2.141-1.531
	c11.626,7.647,25.118,11.016,37.355,11.016c14.686,0,20.805-6.121,20.805-14.382c0-6.732-4.283-12.545-22.946-22.333
	c-26.311-12.544-37.324-25.395-37.324-46.808c0-23.865,18.663-43.751,51.092-43.751c15.909,0,27.142,2.448,33.261,5.201
	c1.529,0.919,1.835,2.447,1.835,3.671v25.394c0,1.528-0.918,2.448-2.754,1.836C357.625,213.796,345.477,210.735,333.544,210.735z"/>
</svg>
