<?xml version="1.0" encoding="utf-8"?>
<!-- Generator: Adobe Illustrator 16.0.0, SVG Export Plug-In . SVG Version: 6.00 Build 0)  -->
<!DOCTYPE svg PUBLIC "-//W3C//DTD SVG 1.1//EN" "http://www.w3.org/Graphics/SVG/1.1/DTD/svg11.dtd">
<svg version="1.1" id="pr_x5F_cc_x5F_app_x5F_RGB.svg"
	 xmlns="http://www.w3.org/2000/svg" xmlns:xlink="http://www.w3.org/1999/xlink" x="0px" y="0px" width="512px" height="499.199px"
	 viewBox="0 0 512 499.199" enable-background="new 0 0 512 499.199" xml:space="preserve">
<g>
	<rect x="52.043" y="51.206" fill="#2A0034" width="407.914" height="396.788"/>
</g>
<g>
	<path fill="#EA77FF" d="M33.502,32.664v433.871H478.5V32.664H33.502z M52.043,51.206h407.916v396.788H52.043V51.206z"/>
</g>
<path fill="#EA77FF" d="M150.258,134.231c0-1.224,0.306-2.141,1.836-2.141c11.931-0.612,29.37-0.918,47.726-0.918
	c51.397,0,73.729,28.146,73.729,64.246c0,47.114-34.088,67.306-76.001,67.306c-7.036,0-9.484-0.305-14.379-0.305v71.256
	c0,1.531-0.612,2.144-2.141,2.144h-28.628c-1.53,0-2.142-0.612-2.142-2.144V134.231z M183.169,232.74
	c4.283,0.308,7.649,0.308,14.991,0.308c21.722,0,42.043-7.648,42.043-37.018c0-23.557-14.509-35.49-39.29-35.49
	c-7.342,0-14.379,0.308-17.744,0.611V232.74L183.169,232.74z M301.832,215.914c0-2.14,0-7.649-0.915-18.049
	c0-1.531,0.214-1.835,1.437-2.447c11.318-4.589,37.813-12.849,67.793-12.849c1.532,0,2.145,0.304,2.145,1.834v26.922
	c0,1.528-0.493,1.836-2.021,1.836c-11.628-0.612-28.638,0.916-35.062,3.669v116.841c0,1.531-0.612,2.143-2.144,2.143h-29.09
	c-1.53,0-2.143-0.611-2.143-2.143V215.914z"/>
</svg>
